<?xml version="1.0" encoding="utf-8"?>
<!-- Generator: Adobe Illustrator 21.0.0, SVG Export Plug-In . SVG Version: 6.00 Build 0)  -->
<svg version="1.1" id="图层_1" xmlns="http://www.w3.org/2000/svg" xmlns:xlink="http://www.w3.org/1999/xlink" x="0px" y="0px"
	 viewBox="0 0 12 12" style="enable-background:new 0 0 12 12;" xml:space="preserve">
<style type="text/css">
	.st0{fill:#CCCCCC;}
	.st1{fill:#FA787A;}
	.st2{fill:#FFFFFF;}
	.st3{fill:#99EFE8;}
	.st4{fill:#00D6C6;}
	.st5{clip-path:url(#SVGID_4_);}
	.st6{clip-path:url(#SVGID_6_);fill:#FFFFFF;}
	.st7{clip-path:url(#SVGID_8_);}
	.st8{clip-path:url(#SVGID_10_);fill:#00D6C6;}
	.st9{fill:#DFDFDF;}
	.st10{fill:#DBDBDB;}
	.st11{opacity:0.4007;fill:none;stroke:#ABAEB8;stroke-linecap:round;stroke-miterlimit:10;}
	.st12{fill:none;stroke:#AAAAAA;stroke-linecap:round;stroke-linejoin:round;stroke-miterlimit:10;}
	.st13{fill:none;stroke:#00D6C6;stroke-linecap:round;stroke-miterlimit:10;}
	.st14{fill:none;stroke:#FFFFFF;stroke-linecap:round;stroke-miterlimit:10;}
	.st15{opacity:0.4007;fill:none;stroke:#2C344E;stroke-linecap:round;stroke-miterlimit:10;}
	.st16{fill:#C5C5C5;}
	.st17{fill:#AAAAAA;}
	.st18{fill-rule:evenodd;clip-rule:evenodd;fill:none;}
	.st19{fill:none;stroke:#00D6C6;stroke-width:2;stroke-linecap:round;stroke-miterlimit:10;}
	.st20{clip-path:url(#SVGID_12_);}
	.st21{clip-path:url(#SVGID_14_);}
	.st22{clip-path:url(#SVGID_16_);}
	.st23{fill:#F2F2F2;}
	.st24{fill:#999999;}
	.st25{fill:#666666;}
	.st26{fill:#808080;}
	.st27{fill:#E6E6E6;}
	.st28{fill:#B3B3B3;}
	.st29{fill-rule:evenodd;clip-rule:evenodd;fill:#555555;}
	.st30{fill:#CAE3FF;}
	.st31{clip-path:url(#SVGID_20_);}
	.st32{clip-path:url(#SVGID_22_);fill:none;stroke:#FFFFFF;stroke-width:2;stroke-miterlimit:10;}
	.st33{fill-rule:evenodd;clip-rule:evenodd;fill:#A9C3DD;}
	.st34{fill-rule:evenodd;clip-rule:evenodd;fill:#CAE3FF;}
	.st35{fill-rule:evenodd;clip-rule:evenodd;fill:#B4D4F4;}
	.st36{fill:#8FB6DF;}
	.st37{fill:#9CF5EE;}
	.st38{clip-path:url(#SVGID_24_);}
	.st39{clip-path:url(#SVGID_26_);fill:none;stroke:#FFFFFF;stroke-width:2;stroke-miterlimit:10;}
	.st40{fill-rule:evenodd;clip-rule:evenodd;fill:#A8E5E2;}
	.st41{fill-rule:evenodd;clip-rule:evenodd;fill:#9CF5EE;}
	.st42{opacity:0.3;fill-rule:evenodd;clip-rule:evenodd;fill:#00D6C6;}
	.st43{opacity:0.7;fill:#00D6CC;}
	.st44{fill:none;stroke:#FFFFFF;stroke-width:2;stroke-linecap:round;stroke-miterlimit:10;}
	.st45{fill:#FFB868;}
</style>
<g>
	<g>
		<defs>
			<circle id="SVGID_3_" cx="148" cy="28" r="20"/>
		</defs>
		<clipPath id="SVGID_2_">
			<use xlink:href="#SVGID_3_"  style="overflow:visible;"/>
		</clipPath>
		<g style="clip-path:url(#SVGID_2_);">
			<defs>
				<rect id="SVGID_5_" x="-179" y="-567" width="375" height="667"/>
			</defs>
			<clipPath id="SVGID_4_">
				<use xlink:href="#SVGID_5_"  style="overflow:visible;"/>
			</clipPath>
		</g>
	</g>
	<g>
		<defs>
			<path id="SVGID_7_" d="M139.9,25c1.6-3.9,5.8-6.2,9.9-5.2c2.9,0.7,5.1,2.8,6,5.4l-1.9,0.2c-0.1,0.1-0.2,0.2-0.2,0.4
				c0,0.1,0.1,0.3,0.2,0.3c0,0,4.2,2.1,4.2,2.1c0.1,0,0.1,0,0.2,0c0.4,0,0.6-0.3,0.6-0.7c0,0,0-0.1,0-0.2c-0.4-4.8-3.7-8.9-8.6-10.1
				c-5.3-1.2-10.9,2-12.7,7L139.9,25z M156.1,30.8c-1.5,3.9-5.8,6.4-10,5.4c-2.9-0.7-5.1-2.8-6-5.4l1.9-0.2c0.1-0.1,0.2-0.2,0.2-0.4
				c0-0.1-0.1-0.3-0.2-0.3c0,0-4.2-2.1-4.2-2.1c-0.1,0-0.1,0-0.2,0c-0.4,0-0.6,0.3-0.6,0.7c0,0,0,0.1,0,0.2
				c0.4,4.8,3.7,8.9,8.6,10.1c5.4,1.3,11-2,12.7-7.2L156.1,30.8z"/>
		</defs>
		<use xlink:href="#SVGID_7_"  style="overflow:visible;fill-rule:evenodd;clip-rule:evenodd;fill:#00D6C6;"/>
		<clipPath id="SVGID_6_">
			<use xlink:href="#SVGID_7_"  style="overflow:visible;"/>
		</clipPath>
		<g style="clip-path:url(#SVGID_6_);">
			<defs>
				<rect id="SVGID_9_" x="-179" y="-567" width="375" height="667"/>
			</defs>
			<use xlink:href="#SVGID_9_"  style="overflow:visible;fill:#00D6C6;"/>
			<clipPath id="SVGID_8_">
				<use xlink:href="#SVGID_9_"  style="overflow:visible;"/>
			</clipPath>
		</g>
	</g>
</g>
<g>
	<path class="st4" d="M6,1c2.8,0,5,2.2,5,5s-2.2,5-5,5S1,8.8,1,6S3.2,1,6,1 M6,0C2.7,0,0,2.7,0,6s2.7,6,6,6s6-2.7,6-6S9.3,0,6,0L6,0
		z"/>
</g>
<g>
	<g>
		<line class="st13" x1="2.8" y1="6" x2="4.9" y2="8.1"/>
	</g>
	<g>
		<line class="st13" x1="4.9" y1="8.1" x2="9.2" y2="3.9"/>
	</g>
</g>
</svg>
