<?xml version="1.0" encoding="utf-8"?>
<!-- Generator: Adobe Illustrator 21.0.0, SVG Export Plug-In . SVG Version: 6.00 Build 0)  -->
<svg version="1.1" id="图层_1" xmlns="http://www.w3.org/2000/svg" xmlns:xlink="http://www.w3.org/1999/xlink" x="0px" y="0px"
	 viewBox="0 0 14 14" style="enable-background:new 0 0 14 14;" xml:space="preserve">
<style type="text/css">
	.st0{fill:#CCCCCC;}
	.st1{fill:#FA787A;}
	.st2{fill:#FFFFFF;}
	.st3{fill:#99EFE8;}
	.st4{fill:#00D6C6;}
	.st5{clip-path:url(#SVGID_4_);}
	.st6{clip-path:url(#SVGID_6_);fill:#FFFFFF;}
	.st7{clip-path:url(#SVGID_8_);}
	.st8{clip-path:url(#SVGID_10_);fill:#00D6C6;}
	.st9{fill:#DFDFDF;}
	.st10{fill:#DBDBDB;}
	.st11{opacity:0.4007;fill:none;stroke:#ABAEB8;stroke-linecap:round;stroke-miterlimit:10;}
	.st12{fill:none;stroke:#AAAAAA;stroke-linecap:round;stroke-linejoin:round;stroke-miterlimit:10;}
	.st13{fill:none;stroke:#00D6C6;stroke-linecap:round;stroke-miterlimit:10;}
	.st14{fill:none;stroke:#FFFFFF;stroke-linecap:round;stroke-miterlimit:10;}
	.st15{opacity:0.4007;fill:none;stroke:#2C344E;stroke-linecap:round;stroke-miterlimit:10;}
	.st16{fill:#C5C5C5;}
	.st17{fill:#AAAAAA;}
	.st18{fill-rule:evenodd;clip-rule:evenodd;fill:none;}
	.st19{fill:none;stroke:#00D6C6;stroke-width:2;stroke-linecap:round;stroke-miterlimit:10;}
	.st20{clip-path:url(#SVGID_12_);}
	.st21{clip-path:url(#SVGID_14_);}
	.st22{clip-path:url(#SVGID_16_);}
	.st23{fill:#F2F2F2;}
	.st24{fill:#999999;}
	.st25{fill:#666666;}
	.st26{fill:#808080;}
	.st27{fill:#E6E6E6;}
	.st28{fill:#B3B3B3;}
	.st29{fill-rule:evenodd;clip-rule:evenodd;fill:#555555;}
	.st30{fill:#CAE3FF;}
	.st31{clip-path:url(#SVGID_20_);}
	.st32{clip-path:url(#SVGID_22_);fill:none;stroke:#FFFFFF;stroke-width:2;stroke-miterlimit:10;}
	.st33{fill-rule:evenodd;clip-rule:evenodd;fill:#A9C3DD;}
	.st34{fill-rule:evenodd;clip-rule:evenodd;fill:#CAE3FF;}
	.st35{fill-rule:evenodd;clip-rule:evenodd;fill:#B4D4F4;}
	.st36{fill:#8FB6DF;}
	.st37{fill:#9CF5EE;}
	.st38{clip-path:url(#SVGID_24_);}
	.st39{clip-path:url(#SVGID_26_);fill:none;stroke:#FFFFFF;stroke-width:2;stroke-miterlimit:10;}
	.st40{fill-rule:evenodd;clip-rule:evenodd;fill:#A8E5E2;}
	.st41{fill-rule:evenodd;clip-rule:evenodd;fill:#9CF5EE;}
	.st42{opacity:0.3;fill-rule:evenodd;clip-rule:evenodd;fill:#00D6C6;}
	.st43{opacity:0.7;fill:#00D6CC;}
	.st44{fill:none;stroke:#FFFFFF;stroke-width:2;stroke-linecap:round;stroke-miterlimit:10;}
	.st45{fill:#FFB868;}
</style>
<g>
	<circle class="st1" cx="7" cy="7" r="7"/>
	<g>
		<path class="st2" d="M5.7,5.5H4.3c0-2,1-2.9,2.9-2.9C8.8,2.6,9.7,3.4,9.7,5c0,0.6-0.1,1.3-0.9,2c-0.8,0.7-1,1.2-1,1.7v0.4H6.4V8.5
			c0-0.6,0.4-1.3,1.2-2C8.2,5.9,8.3,5.4,8.3,5c0-0.8-0.5-1.1-1.1-1.1C6.3,3.9,5.6,4.2,5.7,5.5z M8,10.9c0,0.4-0.4,0.8-0.8,0.8
			s-0.8-0.4-0.8-0.8s0.4-0.8,0.8-0.8S8,10.5,8,10.9z"/>
	</g>
</g>
<g>
	<g>
		<defs>
			<circle id="SVGID_3_" cx="91" cy="30" r="20"/>
		</defs>
		<clipPath id="SVGID_2_">
			<use xlink:href="#SVGID_3_"  style="overflow:visible;"/>
		</clipPath>
		<g style="clip-path:url(#SVGID_2_);">
			<defs>
				<rect id="SVGID_5_" x="-236" y="-565" width="375" height="667"/>
			</defs>
			<clipPath id="SVGID_4_">
				<use xlink:href="#SVGID_5_"  style="overflow:visible;"/>
			</clipPath>
		</g>
	</g>
	<g>
		<defs>
			<path id="SVGID_7_" d="M82.9,27c1.6-3.9,5.8-6.2,9.9-5.2c2.9,0.7,5.1,2.8,6,5.4L97,27.4c-0.1,0.1-0.2,0.2-0.2,0.4
				c0,0.1,0.1,0.3,0.2,0.3c0,0,4.2,2.1,4.2,2.1c0.1,0,0.1,0,0.2,0c0.4,0,0.6-0.3,0.6-0.7c0,0,0-0.1,0-0.2c-0.4-4.8-3.7-8.9-8.6-10.1
				c-5.3-1.2-10.9,2-12.7,7L82.9,27z M99.1,32.8c-1.5,3.9-5.8,6.4-10,5.4c-2.9-0.7-5.1-2.8-6-5.4l1.9-0.2c0.1-0.1,0.2-0.2,0.2-0.4
				c0-0.1-0.1-0.3-0.2-0.3c0,0-4.2-2.1-4.2-2.1c-0.1,0-0.1,0-0.2,0c-0.4,0-0.6,0.3-0.6,0.7c0,0,0,0.1,0,0.2
				c0.4,4.8,3.7,8.9,8.6,10.1c5.4,1.3,11-2,12.7-7.2L99.1,32.8z"/>
		</defs>
		<use xlink:href="#SVGID_7_"  style="overflow:visible;fill-rule:evenodd;clip-rule:evenodd;fill:#00D6C6;"/>
		<clipPath id="SVGID_6_">
			<use xlink:href="#SVGID_7_"  style="overflow:visible;"/>
		</clipPath>
		<g style="clip-path:url(#SVGID_6_);">
			<defs>
				<rect id="SVGID_9_" x="-236" y="-565" width="375" height="667"/>
			</defs>
			<use xlink:href="#SVGID_9_"  style="overflow:visible;fill:#00D6C6;"/>
			<clipPath id="SVGID_8_">
				<use xlink:href="#SVGID_9_"  style="overflow:visible;"/>
			</clipPath>
		</g>
	</g>
</g>
</svg>
