<?xml version="1.0" encoding="utf-8"?>
<!-- Generator: Adobe Illustrator 21.0.0, SVG Export Plug-In . SVG Version: 6.00 Build 0)  -->
<svg version="1.1" id="图层_1" xmlns="http://www.w3.org/2000/svg" xmlns:xlink="http://www.w3.org/1999/xlink" x="0px" y="0px"
	 viewBox="0 0 15 15" style="enable-background:new 0 0 15 15;" xml:space="preserve">
<style type="text/css">
	.st0{fill:#CCCCCC;}
	.st1{fill:#FA787A;}
	.st2{fill:#FFFFFF;}
	.st3{fill:#99EFE8;}
	.st4{fill:#00D6C6;}
	.st5{clip-path:url(#SVGID_4_);}
	.st6{clip-path:url(#SVGID_6_);fill:#FFFFFF;}
	.st7{clip-path:url(#SVGID_8_);}
	.st8{clip-path:url(#SVGID_10_);fill:#00D6C6;}
	.st9{fill:#DFDFDF;}
	.st10{fill:#DBDBDB;}
	.st11{opacity:0.4007;fill:none;stroke:#ABAEB8;stroke-linecap:round;stroke-miterlimit:10;}
	.st12{fill:none;stroke:#AAAAAA;stroke-linecap:round;stroke-linejoin:round;stroke-miterlimit:10;}
	.st13{fill:none;stroke:#00D6C6;stroke-linecap:round;stroke-miterlimit:10;}
	.st14{fill:none;stroke:#FFFFFF;stroke-linecap:round;stroke-miterlimit:10;}
	.st15{opacity:0.4007;fill:none;stroke:#2C344E;stroke-linecap:round;stroke-miterlimit:10;}
	.st16{fill:#C5C5C5;}
	.st17{fill:#AAAAAA;}
	.st18{fill-rule:evenodd;clip-rule:evenodd;fill:none;}
	.st19{fill:none;stroke:#00D6C6;stroke-width:2;stroke-linecap:round;stroke-miterlimit:10;}
	.st20{clip-path:url(#SVGID_12_);}
	.st21{clip-path:url(#SVGID_14_);}
	.st22{clip-path:url(#SVGID_16_);}
	.st23{fill:#F2F2F2;}
	.st24{fill:#999999;}
	.st25{fill:#666666;}
	.st26{fill:#808080;}
	.st27{fill:#E6E6E6;}
	.st28{fill:#B3B3B3;}
	.st29{fill-rule:evenodd;clip-rule:evenodd;fill:#555555;}
	.st30{fill:#CAE3FF;}
	.st31{clip-path:url(#SVGID_20_);}
	.st32{clip-path:url(#SVGID_22_);fill:none;stroke:#FFFFFF;stroke-width:2;stroke-miterlimit:10;}
	.st33{fill-rule:evenodd;clip-rule:evenodd;fill:#A9C3DD;}
	.st34{fill-rule:evenodd;clip-rule:evenodd;fill:#CAE3FF;}
	.st35{fill-rule:evenodd;clip-rule:evenodd;fill:#B4D4F4;}
	.st36{fill:#8FB6DF;}
	.st37{fill:#9CF5EE;}
	.st38{clip-path:url(#SVGID_24_);}
	.st39{clip-path:url(#SVGID_26_);fill:none;stroke:#FFFFFF;stroke-width:2;stroke-miterlimit:10;}
	.st40{fill-rule:evenodd;clip-rule:evenodd;fill:#A8E5E2;}
	.st41{fill-rule:evenodd;clip-rule:evenodd;fill:#9CF5EE;}
	.st42{opacity:0.3;fill-rule:evenodd;clip-rule:evenodd;fill:#00D6C6;}
	.st43{opacity:0.7;fill:#00D6CC;}
	.st44{fill:none;stroke:#FFFFFF;stroke-width:2;stroke-linecap:round;stroke-miterlimit:10;}
	.st45{fill:#FFB868;}
</style>
<g>
	<path class="st4" d="M13,1c0.6,0,1,0.4,1,1v11c0,0.6-0.4,1-1,1H2c-0.6,0-1-0.4-1-1V2c0-0.6,0.4-1,1-1H13 M13,0H2C0.9,0,0,0.9,0,2
		v11c0,1.1,0.9,2,2,2h11c1.1,0,2-0.9,2-2V2C15,0.9,14.1,0,13,0L13,0z"/>
</g>
<g>
	<g>
		<line class="st13" x1="3.3" y1="7.5" x2="6.1" y2="10.3"/>
	</g>
	<g>
		<line class="st13" x1="6.1" y1="10.3" x2="11.7" y2="4.7"/>
	</g>
</g>
<g>
	<defs>
		<path id="SVGID_11_" d="M61.1,6c2.2-3.8,7.1-5.1,10.9-2.9s5.1,7.1,2.9,10.9c-2.2,3.8-7.1,5.1-10.9,2.9S58.9,9.8,61.1,6z M57.6,4
			c-3.3,5.7-1.3,13.1,4.4,16.4s13.1,1.3,16.4-4.4c3.3-5.7,1.3-13.1-4.4-16.4C68.3-3.7,60.9-1.7,57.6,4z"/>
	</defs>
	<clipPath id="SVGID_2_">
		<use xlink:href="#SVGID_11_"  style="overflow:visible;"/>
	</clipPath>
	<g style="clip-path:url(#SVGID_2_);">
		<defs>
			<ellipse id="SVGID_13_" transform="matrix(0.5 -0.866 0.866 0.5 25.3397 63.8897)" cx="68" cy="10" rx="10" ry="10"/>
		</defs>
		<clipPath id="SVGID_4_">
			<use xlink:href="#SVGID_13_"  style="overflow:visible;"/>
		</clipPath>
		<g class="st5">
			<defs>
				<rect id="SVGID_15_" x="-77" y="-150" width="375" height="667"/>
			</defs>
			<clipPath id="SVGID_6_">
				<use xlink:href="#SVGID_15_"  style="overflow:visible;"/>
			</clipPath>
		</g>
	</g>
</g>
</svg>
